<svg width="22" height="20" viewBox="0 0 22 20" fill="none" xmlns="http://www.w3.org/2000/svg">
<path fill-rule="evenodd" clip-rule="evenodd" d="M18.1683 2.6854C17.6902 2.0298 17.116 1.52093 16.4383 1.18877C15.6736 0.813953 14.8238 0.687077 13.9147 0.778398C12.4474 0.925814 11.4224 1.74408 10.837 2.94524C10.3369 3.97121 10.1625 5.2564 10.2222 6.63205C8.85763 7.16056 7.6536 6.87434 6.58648 6.19309C5.36566 5.41372 4.35047 4.12353 3.63638 2.95957C3.47915 2.70328 3.18404 2.56566 2.88664 2.60995C2.58923 2.65424 2.34703 2.87187 2.27129 3.16285C1.77156 5.0828 1.23621 7.56307 2.29717 10.3192C2.90481 11.8976 4.18221 13.2101 6.0175 14.2928C4.1934 15.1109 2.74775 15.3554 1.64042 15.1443C1.27838 15.0753 0.919862 15.2796 0.794634 15.6262C0.669406 15.9729 0.814587 16.3591 1.13713 16.5374C1.15992 16.55 1.18623 16.5647 1.21593 16.5812C1.81489 16.9146 3.79688 18.0177 6.25584 18.6952C8.81726 19.4008 12.0599 19.6897 14.8074 17.973C19.9024 14.7896 19.8682 9.39465 19.852 6.82575C19.8515 6.75728 19.8511 6.69081 19.8508 6.62646C19.9216 6.50341 20.0095 6.3759 20.1228 6.21419C20.1282 6.20653 20.1336 6.1988 20.1391 6.19101C20.2855 5.98228 20.4661 5.72491 20.632 5.4106C20.9907 4.7314 21.25 3.85076 21.25 2.47187C21.25 2.17392 21.0736 1.90423 20.8007 1.78478C20.5277 1.66533 20.21 1.71878 19.9911 1.92096C19.2883 2.5702 18.6965 2.76123 18.1683 2.6854ZM15.7781 2.53568C15.3002 2.30145 14.7377 2.20327 14.0647 2.27089C13.159 2.36187 12.5633 2.8269 12.1853 3.60245C11.7862 4.4213 11.6294 5.60343 11.7513 7.03993C11.7771 7.34468 11.6153 7.63459 11.3424 7.77261C9.23221 8.83974 7.31711 8.43913 5.77933 7.45742C4.82976 6.85121 4.01656 6.02233 3.35364 5.17926C3.10223 6.60746 3.0657 8.14024 3.69703 9.78028C4.24629 11.2071 5.60613 12.5138 7.98247 13.6339C8.23824 13.7544 8.40447 14.0086 8.41242 14.2912C8.42036 14.5738 8.26868 14.8369 8.02009 14.9717C6.72562 15.6732 5.50946 16.1787 4.38126 16.4595C5.05555 16.7402 5.82649 17.021 6.65427 17.249C9.06566 17.9134 11.7958 18.0859 14.0126 16.7009C18.3782 13.9733 18.3609 9.38603 18.3512 6.78519C18.3507 6.66689 18.3503 6.55269 18.3503 6.44297C18.3503 6.33117 18.3753 6.22078 18.4235 6.11989C18.5653 5.82284 18.7426 5.56985 18.89 5.35968L18.8954 5.35196C19.0505 5.13075 19.1842 4.94003 19.3056 4.71021C19.4101 4.51228 19.5118 4.27251 19.5916 3.9588C18.9254 4.23035 18.2246 4.28601 17.5028 4.07039C17.3334 4.01978 17.1873 3.91094 17.0904 3.7631C16.6984 3.16553 16.2575 2.77066 15.7781 2.53568Z" fill="white"/>
</svg>
